<?xml version="1.0" encoding="UTF-8"?><svg id="a" xmlns="http://www.w3.org/2000/svg" viewBox="0 0 133.81 133.81"><defs><style>.b{fill:#b4b4b4;}</style></defs><circle class="b" cx="66.91" cy="66.91" r="66.91"/><g><polygon points="60.16 68.01 60.16 68.01 59.6 67.44 38.01 89.02 38.01 90.15 43.27 95.4 44.4 95.4 65.98 73.83 65.42 73.26 60.16 68.01"/><polygon points="73.5 66.31 73.49 66.31 72.93 65.75 72.92 65.75 72.36 65.18 72.36 65.18 68.23 61.05 67.67 60.5 67.67 60.5 67.11 59.93 67.1 59.93 67.1 59.92 57.21 50.03 65.41 41.83 65.41 40.7 57.11 32.4 55.99 32.4 47.79 40.61 44.4 37.22 43.27 37.22 38.01 42.48 38.01 43.61 41.4 47 33.2 55.19 33.2 56.32 41.49 64.62 42.62 64.62 50.83 56.42 60.72 66.31 60.72 66.32 61.29 66.88 62.71 68.3 67.1 72.7 67.1 72.7 67.11 72.7 89.81 95.4 90.94 95.4 96.2 90.15 96.2 89.02 73.5 66.32 73.5 66.31"/><polygon points="94.82 49.09 94.64 48.82 92.82 47 96.2 43.61 96.2 42.48 90.94 37.22 89.81 37.22 86.43 40.61 86.43 40.61 78.22 32.4 77.1 32.4 68.8 40.7 68.8 41.83 77 50.03 77 50.03 68.23 58.81 68.8 59.37 68.8 59.37 74.05 64.63 74.62 65.19 83.39 56.42 85.22 58.25 85.48 58.42 99.58 64.22 100.61 63.18 94.82 49.09"/></g></svg>